<?xml version="1.0" encoding="utf-8"?>
<!-- Generator: Adobe Illustrator 26.2.1, SVG Export Plug-In . SVG Version: 6.00 Build 0)  -->
<svg version="1.1" id="Lager_1" xmlns="http://www.w3.org/2000/svg" xmlns:xlink="http://www.w3.org/1999/xlink" x="0px" y="0px"
	 viewBox="0 0 1300 291.75" style="enable-background:new 0 0 1300 291.75;" xml:space="preserve">
<style type="text/css">
	.st0{fill:#000000;}
</style>
<g>
	<g>
		<path class="st0" d="M1037.37,62.09c-25.23,0-44.66,7.49-59.34,22.64h-0.61V65.76h-32.27v152.02h33.8V113.02
			c13.46-14.07,28.91-20.8,47.26-20.8c28.75,0,44.05,13.61,44.05,46.8v78.76h33.8v-86.87C1104.05,85.03,1078.2,62.09,1037.37,62.09z
			"/>
	</g>
	<g>
		<rect x="869.29" y="65.76" class="st0" width="33.49" height="152.02"/>
	</g>
	<g>
		<path class="st0" d="M887.03,8.41h-2.14c-9.18,0-16.52,7.49-16.52,16.67s7.34,16.52,16.52,16.52h2.14
			c9.18,0,16.67-7.34,16.67-16.52S896.21,8.41,887.03,8.41z"/>
	</g>
	<g>
		<g>
			<path class="st0" d="M811.33,82.89c-16.36-13.92-37.16-20.8-61.79-20.8c-24.78,0-45.58,6.88-62.25,20.8
				c-16.52,13.92-24.78,33.49-24.78,58.88s8.26,44.96,24.78,58.88c16.67,14.07,37.47,20.8,62.25,20.8c24.62,0,45.42-6.73,61.79-20.8
				c16.82-13.92,25.08-33.49,25.08-58.88S828.15,96.81,811.33,82.89z M787.47,178.78c-9.64,8.56-22.02,13-37.93,13
				c-15.75,0-28.45-4.44-38.08-13c-9.64-8.72-14.53-21.11-14.53-37.01c0-15.75,4.89-28.14,14.53-36.86c9.64-8.72,22.33-13,38.08-13
				c15.91,0,28.29,4.28,37.93,13c9.64,8.72,14.53,21.1,14.53,36.86C802,157.68,797.11,170.07,787.47,178.78z"/>
		</g>
	</g>
	<g>
		<path class="st0" d="M367.35,62.09c-25.08,0-44.66,7.49-59.19,22.64h-0.61V65.76h-32.27v152.02h33.8V113.02
			c13.31-14.07,28.75-20.8,47.1-20.8c28.91,0,44.05,13.61,44.05,46.8v78.76h33.8v-86.87C434.03,85.03,408.34,62.09,367.35,62.09z"/>
	</g>
	<g>
		<g>
			<path class="st0" d="M210.9,29.82C188.88,9.94,159.05,0,122.2,0C84.88,0,55.21,9.94,33.19,29.82S0,76.62,0,110.73
				c0,34.11,11.16,61.17,33.19,81.06c22.02,19.73,51.69,29.67,89.01,29.67c36.86,0,66.68-9.94,88.7-29.67
				c22.02-19.88,33.19-46.95,33.19-81.06C244.09,76.62,232.92,49.7,210.9,29.82z M185.05,169.45
				c-15.75,14.22-36.86,21.41-62.86,21.41c-26.46,0-47.56-7.19-63.32-21.41c-15.75-14.68-23.86-34.1-23.86-58.73
				c0-24.47,8.11-44.04,23.86-58.27c15.75-14.53,36.86-21.72,63.32-21.72c26,0,47.1,7.19,62.86,21.72
				c15.91,14.22,23.86,33.8,23.86,58.27C208.91,135.35,200.96,154.77,185.05,169.45z"/>
		</g>
	</g>
	<g>
		<path class="st0" d="M599.4,66.01v18.66h-0.46c-3.36-3.98-6.88-7.19-9.64-9.64c-5.2-4.89-23.86-13-45.88-13
			c-22.33,0-40.99,6.88-56.13,20.8c-14.83,13.92-22.33,33.19-22.33,57.96c0,25.69,7.19,45.27,21.41,58.88
			c9.64,9.02,20.95,15.14,34.26,18.05c6.73,1.68,14.07,2.45,21.87,2.45c7.95,0,15.29-0.76,21.87-2.45
			c13.76-3.06,24.78-9.48,33.03-19.27h1.99v45.57c0,9.48-7.65,17.13-17.13,17.13h-99.41v30.59h99.41c26.3,0,47.72-21.41,47.72-47.72
			V66.01H599.4z M598.02,169.4c-12.69,13.92-28.9,21.1-47.71,21.1c-31.05,0-50.93-17.43-50.93-49.4c0-31.96,21.41-49.25,52.15-49.25
			c18.5,0,34.1,7.03,46.49,21.11V169.4z"/>
	</g>
	<g>
		<line class="st0" x1="630.59" y1="198.46" x2="629.98" y2="198.46"/>
	</g>
	<g>
		<path class="st0" d="M1269.41,66.01v18.66h-0.46c-3.36-3.98-6.88-7.19-9.64-9.64c-5.2-4.89-23.86-13-45.88-13
			c-22.33,0-40.99,6.88-56.13,20.8c-14.83,13.92-22.33,33.19-22.33,57.96c0,25.69,7.19,45.27,21.41,58.88
			c9.64,9.02,20.95,15.14,34.26,18.05c6.73,1.68,14.07,2.45,21.87,2.45c7.95,0,15.29-0.76,21.87-2.45
			c13.76-3.06,24.77-9.48,33.03-19.27h1.99v45.57c0,9.48-7.65,17.13-17.13,17.13h-99.41v30.59h99.41c26.3,0,47.72-21.41,47.72-47.72
			V66.01H1269.41z M1268.03,169.4c-12.69,13.92-28.91,21.1-47.72,21.1c-31.04,0-50.93-17.43-50.93-49.4
			c0-31.96,21.41-49.25,52.15-49.25c18.5,0,34.1,7.03,46.49,21.11V169.4z"/>
	</g>
</g>
</svg>
